<svg xmlns="http://www.w3.org/2000/svg" viewBox="0 0 920.64 1321.22"><defs><style>.cls-1{fill:#fff;}.cls-2{fill:none;stroke:#000;stroke-miterlimit:10;stroke-width:3px;}</style></defs><g id="LMASK"><rect class="cls-1" x="156.76" y="83.83" width="176.36" height="109.77"/><path d="M412.62,178.3V285.07H239.25V178.3H412.62m3-3H236.25V288.07H415.62V175.3Z" transform="translate(-80.99 -92.98)"/><line class="cls-2" x1="87.34" y1="114.74" x2="157.04" y2="114.74"/><line class="cls-2" x1="87.78" y1="161.8" x2="155.26" y2="161.8"/><line class="cls-2" x1="245.39" y1="23.72" x2="245.39" y2="82.33"/><path d="M265.9,217.34h3.71V243h12.27v3.11h-16Z" transform="translate(-80.99 -92.98)"/><path d="M310.23,233.45c-.22-4-.47-8.82-.43-12.4h-.13c-1,3.37-2.17,6.95-3.62,10.91L301,245.9h-2.82l-4.64-13.68c-1.36-4.05-2.52-7.76-3.33-11.17h-.08c-.09,3.58-.3,8.4-.55,12.7l-.77,12.32h-3.54l2-28.73H292l4.91,13.9c1.19,3.53,2.17,6.69,2.89,9.67h.13c.73-2.9,1.75-6,3-9.67l5.11-13.9h4.73l1.79,28.73H311Z" transform="translate(-80.99 -92.98)"/><path d="M324.5,237l-3,9h-3.83l9.75-28.73h4.48l9.8,28.73h-4l-3.07-9Zm9.42-2.9-2.81-8.26c-.64-1.88-1.07-3.58-1.49-5.25h-.09c-.42,1.71-.89,3.46-1.45,5.2l-2.81,8.31Z" transform="translate(-80.99 -92.98)"/><path d="M345.43,241.55a13.16,13.16,0,0,0,6.65,1.87c3.79,0,6-2,6-4.9,0-2.68-1.54-4.22-5.41-5.71-4.69-1.66-7.59-4.09-7.59-8.14,0-4.47,3.71-7.8,9.29-7.8a13.1,13.1,0,0,1,6.35,1.41l-1,3a11.36,11.36,0,0,0-5.46-1.37c-3.92,0-5.41,2.35-5.41,4.31,0,2.68,1.75,4,5.71,5.54,4.86,1.87,7.33,4.22,7.33,8.43,0,4.44-3.28,8.27-10.06,8.27a14.89,14.89,0,0,1-7.33-1.83Z" transform="translate(-80.99 -92.98)"/><path d="M367,217.34h3.71v13.85h.13c.77-1.11,1.53-2.13,2.26-3.07l8.78-10.78h4.6L376,229.53l11.21,16.54h-4.39L373.39,232l-2.73,3.15v11H367Z" transform="translate(-80.99 -92.98)"/><line class="cls-2" x1="232.68" y1="53.2" x2="258.43" y2="69.18"/><path d="M81,202.05h1.39v9.6H87v1.17H81Z" transform="translate(-80.99 -92.98)"/><path d="M97.6,208.09c-.08-1.51-.17-3.31-.15-4.65h0c-.37,1.26-.82,2.6-1.36,4.09l-1.9,5.22H93.08l-1.74-5.13c-.51-1.51-.94-2.9-1.24-4.18h0c0,1.34-.11,3.14-.2,4.76l-.29,4.62H88.24L89,202.05h1.78l1.83,5.21c.45,1.32.82,2.5,1.09,3.62h0c.27-1.08.65-2.27,1.13-3.62l1.92-5.21h1.77l.67,10.77H97.88Z" transform="translate(-80.99 -92.98)"/><path d="M103,209.43l-1.12,3.39h-1.43l3.65-10.77h1.68l3.68,10.77h-1.49l-1.15-3.39Zm3.53-1.09-1-3.1c-.24-.7-.4-1.34-.56-2h0c-.16.64-.34,1.29-.55,1.95l-1,3.11Z" transform="translate(-80.99 -92.98)"/><path d="M110.81,211.12a4.84,4.84,0,0,0,2.49.7c1.43,0,2.26-.75,2.26-1.83s-.58-1.58-2-2.14c-1.76-.63-2.85-1.54-2.85-3,0-1.68,1.39-2.93,3.49-2.93a4.91,4.91,0,0,1,2.38.53l-.39,1.13a4.3,4.3,0,0,0-2-.51c-1.47,0-2,.88-2,1.62,0,1,.65,1.5,2.14,2.07,1.82.71,2.75,1.58,2.75,3.17s-1.23,3.1-3.77,3.1a5.59,5.59,0,0,1-2.75-.69Z" transform="translate(-80.99 -92.98)"/><path d="M118.88,202.05h1.39v5.19h0c.29-.42.58-.8.85-1.15l3.29-4h1.72l-3.89,4.57,4.2,6.2h-1.65l-3.55-5.29-1,1.18v4.11h-1.39Z" transform="translate(-80.99 -92.98)"/><path d="M134.32,214v.8h-8V214Z" transform="translate(-80.99 -92.98)"/><path d="M135.34,211.12a4.91,4.91,0,0,0,2.5.7c1.42,0,2.25-.75,2.25-1.83s-.58-1.58-2-2.14c-1.76-.63-2.84-1.54-2.84-3,0-1.68,1.39-2.93,3.48-2.93a4.91,4.91,0,0,1,2.38.53l-.38,1.13a4.31,4.31,0,0,0-2-.51c-1.47,0-2,.88-2,1.62,0,1,.66,1.5,2.14,2.07,1.82.71,2.75,1.58,2.75,3.17s-1.23,3.1-3.77,3.1a5.62,5.62,0,0,1-2.75-.69Z" transform="translate(-80.99 -92.98)"/><path d="M144.81,202.05v4.5H150v-4.5h1.41v10.77H150v-5h-5.2v5h-1.39V202.05Z" transform="translate(-80.99 -92.98)"/><path d="M153.84,202.05h1.39v9.6h4.6v1.17h-6Z" transform="translate(-80.99 -92.98)"/><path d="M88,249h1.39v9.6H94v1.17H88Z" transform="translate(-80.99 -92.98)"/><path d="M104.66,255c-.08-1.5-.17-3.31-.16-4.65h0c-.37,1.26-.82,2.6-1.36,4.09l-1.9,5.22h-1.06l-1.74-5.12c-.51-1.52-.94-2.91-1.25-4.19h0c0,1.34-.11,3.15-.21,4.76l-.28,4.62H95.3L96.05,249h1.77l1.84,5.21c.45,1.32.82,2.51,1.09,3.62h0c.27-1.08.65-2.26,1.13-3.62l1.92-5.21h1.77l.67,10.77h-1.36Z" transform="translate(-80.99 -92.98)"/><path d="M110,256.37l-1.12,3.39h-1.44L111.12,249h1.68l3.67,10.77H115l-1.15-3.39Zm3.53-1.09-1-3.09c-.24-.71-.4-1.35-.56-2h0c-.16.64-.34,1.29-.55,1.95l-1,3.11Z" transform="translate(-80.99 -92.98)"/><path d="M117.87,258.06a4.84,4.84,0,0,0,2.49.71c1.42,0,2.25-.75,2.25-1.84s-.57-1.58-2-2.14c-1.75-.62-2.84-1.53-2.84-3,0-1.68,1.39-2.93,3.48-2.93a4.88,4.88,0,0,1,2.38.53l-.38,1.14a4.16,4.16,0,0,0-2-.52c-1.47,0-2,.88-2,1.62,0,1,.65,1.5,2.14,2.07,1.82.71,2.75,1.59,2.75,3.17s-1.23,3.1-3.77,3.1a5.59,5.59,0,0,1-2.75-.69Z" transform="translate(-80.99 -92.98)"/><path d="M125.94,249h1.39v5.19h0c.29-.41.57-.8.84-1.15l3.3-4h1.72l-3.9,4.57,4.2,6.2H131.9l-3.55-5.29-1,1.18v4.11h-1.39Z" transform="translate(-80.99 -92.98)"/><path d="M141.38,261v.79h-8V261Z" transform="translate(-80.99 -92.98)"/><path d="M142.59,249H144v9.6h4.6v1.17h-6Z" transform="translate(-80.99 -92.98)"/><path d="M150.14,249.13a20.93,20.93,0,0,1,3-.22,6.15,6.15,0,0,1,4.36,1.34,5,5,0,0,1,1.52,3.87,5.66,5.66,0,0,1-1.55,4.18,6.61,6.61,0,0,1-4.76,1.55,22.5,22.5,0,0,1-2.52-.12Zm1.39,9.53a9.19,9.19,0,0,0,1.4.08c3,0,4.59-1.67,4.59-4.57,0-2.54-1.42-4.16-4.36-4.16a7.82,7.82,0,0,0-1.63.15Z" transform="translate(-80.99 -92.98)"/><path d="M234.26,96.07h1.39v9.6h4.6v1.17h-6Z" transform="translate(-80.99 -92.98)"/><path d="M250.88,102.11c-.08-1.5-.18-3.31-.16-4.65h-.05c-.37,1.26-.81,2.6-1.36,4.09l-1.9,5.22h-1l-1.74-5.13c-.52-1.51-1-2.9-1.25-4.18h0c0,1.34-.11,3.15-.21,4.76l-.29,4.62h-1.32l.75-10.77H244l1.84,5.21c.45,1.32.81,2.5,1.08,3.62h0c.27-1.08.66-2.27,1.14-3.62l1.91-5.21h1.78l.67,10.77h-1.36Z" transform="translate(-80.99 -92.98)"/><path d="M256.24,103.45l-1.12,3.39h-1.44l3.66-10.77H259l3.67,10.77h-1.48l-1.16-3.39Zm3.53-1.09-1.06-3.1c-.24-.7-.4-1.34-.56-2h0c-.16.64-.33,1.29-.54,2l-1.06,3.11Z" transform="translate(-80.99 -92.98)"/><path d="M264.08,105.14a4.91,4.91,0,0,0,2.5.71c1.42,0,2.25-.76,2.25-1.84s-.58-1.58-2-2.14c-1.76-.63-2.84-1.54-2.84-3.05,0-1.68,1.39-2.93,3.48-2.93a4.91,4.91,0,0,1,2.38.53l-.38,1.13a4.31,4.31,0,0,0-2.05-.51c-1.47,0-2,.88-2,1.62,0,1,.66,1.5,2.14,2.07,1.83.71,2.75,1.58,2.75,3.17S269,107,266.48,107a5.62,5.62,0,0,1-2.75-.69Z" transform="translate(-80.99 -92.98)"/><path d="M272.16,96.07h1.39v5.19h0c.29-.42.58-.8.85-1.15l3.29-4h1.73l-3.9,4.57,4.2,6.2h-1.64l-3.55-5.29-1,1.18v4.11h-1.39Z" transform="translate(-80.99 -92.98)"/><path d="M287.59,108v.8h-8V108Z" transform="translate(-80.99 -92.98)"/><path d="M290.2,96.07v10.77h-1.39V96.07Z" transform="translate(-80.99 -92.98)"/><path d="M292.63,106.84V96.07h1.52l3.45,5.45a30,30,0,0,1,1.93,3.49h0c-.12-1.44-.16-2.75-.16-4.43v-4.5h1.31v10.77h-1.4l-3.42-5.47a34.48,34.48,0,0,1-2-3.59h-.05c.08,1.36.11,2.66.11,4.44v4.61Z" transform="translate(-80.99 -92.98)"/><path d="M306.63,108.62V95.89h2.92v.88h-1.83v11h1.83v.87Z" transform="translate(-80.99 -92.98)"/><path d="M317.32,96.45v.93l-4.52,9.46h-1.45l4.5-9.19v0h-5.08V96.45Z" transform="translate(-80.99 -92.98)"/><path d="M318.89,106a.94.94,0,0,1,1-1,1,1,0,1,1-1,1Z" transform="translate(-80.99 -92.98)"/><path d="M322.2,106a.94.94,0,0,1,1-1,1,1,0,1,1-1,1Z" transform="translate(-80.99 -92.98)"/><path d="M332.3,101.53c0,3.53-1.31,5.48-3.61,5.48-2,0-3.41-1.9-3.44-5.33s1.5-5.4,3.61-5.4S332.3,98.23,332.3,101.53Zm-5.64.16c0,2.7.83,4.24,2.11,4.24,1.43,0,2.12-1.68,2.12-4.33s-.66-4.24-2.11-4.24C327.55,97.36,326.66,98.86,326.66,101.69Z" transform="translate(-80.99 -92.98)"/><path d="M336.1,95.88v12.74h-2.92v-.87H335v-11h-1.83v-.87Z" transform="translate(-80.99 -92.98)"/><path d="M341.44,101.45v-1h8.24v1Zm0,3.13v-1h8.24v1Z" transform="translate(-80.99 -92.98)"/><path d="M361.34,101.53c0,3.53-1.31,5.48-3.61,5.48-2,0-3.41-1.9-3.44-5.33s1.5-5.4,3.61-5.4S361.34,98.23,361.34,101.53Zm-5.64.16c0,2.7.83,4.24,2.11,4.24s2.12-1.68,2.12-4.33-.66-4.24-2.11-4.24C356.59,97.36,355.7,98.86,355.7,101.69Z" transform="translate(-80.99 -92.98)"/><path d="M369.54,101.53c0,3.53-1.31,5.48-3.62,5.48-2,0-3.4-1.9-3.43-5.33s1.5-5.4,3.61-5.4S369.54,98.23,369.54,101.53Zm-5.64.16c0,2.7.83,4.24,2.1,4.24,1.44,0,2.13-1.68,2.13-4.33s-.66-4.24-2.11-4.24C364.79,97.36,363.9,98.86,363.9,101.69Z" transform="translate(-80.99 -92.98)"/><path d="M377.73,101.53c0,3.53-1.31,5.48-3.61,5.48-2,0-3.4-1.9-3.43-5.33s1.5-5.4,3.61-5.4S377.73,98.23,377.73,101.53Zm-5.64.16c0,2.7.83,4.24,2.11,4.24,1.44,0,2.13-1.68,2.13-4.33s-.66-4.24-2.11-4.24C373,97.36,372.09,98.86,372.09,101.69Z" transform="translate(-80.99 -92.98)"/><path d="M385.93,101.53c0,3.53-1.31,5.48-3.61,5.48-2,0-3.4-1.9-3.43-5.33s1.5-5.4,3.61-5.4S385.93,98.23,385.93,101.53Zm-5.64.16c0,2.7.83,4.24,2.11,4.24,1.44,0,2.13-1.68,2.13-4.33s-.66-4.24-2.11-4.24C381.19,97.36,380.29,98.86,380.29,101.69Z" transform="translate(-80.99 -92.98)"/><path d="M394.13,101.53c0,3.53-1.31,5.48-3.61,5.48-2,0-3.4-1.9-3.43-5.33s1.5-5.4,3.61-5.4S394.13,98.23,394.13,101.53Zm-5.64.16c0,2.7.83,4.24,2.11,4.24,1.44,0,2.13-1.68,2.13-4.33s-.66-4.24-2.11-4.24C389.39,97.36,388.49,98.86,388.49,101.69Z" transform="translate(-80.99 -92.98)"/><path d="M402.33,101.53c0,3.53-1.31,5.48-3.61,5.48-2,0-3.4-1.9-3.43-5.33s1.5-5.4,3.61-5.4S402.33,98.23,402.33,101.53Zm-5.64.16c0,2.7.83,4.24,2.11,4.24,1.44,0,2.13-1.68,2.13-4.33s-.66-4.24-2.11-4.24C397.59,97.36,396.69,98.86,396.69,101.69Z" transform="translate(-80.99 -92.98)"/><path d="M410.53,101.53c0,3.53-1.31,5.48-3.61,5.48-2,0-3.4-1.9-3.44-5.33s1.51-5.4,3.61-5.4S410.53,98.23,410.53,101.53Zm-5.64.16c0,2.7.83,4.24,2.11,4.24,1.44,0,2.12-1.68,2.12-4.33s-.65-4.24-2.1-4.24C405.78,97.36,404.89,98.86,404.89,101.69Z" transform="translate(-80.99 -92.98)"/><path d="M414.88,97.76h0l-1.81,1-.27-1.07L415,96.45h1.2v10.39h-1.36Z" transform="translate(-80.99 -92.98)"/><path d="M183.1,309.82h1.39v9.61h4.6v1.16h-6Z" transform="translate(-80.99 -92.98)"/><path d="M199.72,315.86c-.08-1.5-.18-3.3-.16-4.65h-.05c-.37,1.27-.82,2.61-1.36,4.09l-1.9,5.23H195.2l-1.75-5.13c-.51-1.52-.94-2.91-1.24-4.19h0c0,1.35-.12,3.15-.21,4.76l-.29,4.62h-1.33l.76-10.77h1.77l1.84,5.21c.44,1.33.81,2.51,1.08,3.63h0c.27-1.09.66-2.27,1.13-3.63l1.92-5.21h1.78l.67,10.77H200Z" transform="translate(-80.99 -92.98)"/><path d="M205.07,317.2,204,320.59h-1.44l3.66-10.77h1.67l3.68,10.77H210l-1.15-3.39Zm3.53-1.08-1-3.1c-.24-.7-.4-1.34-.56-2h0c-.16.64-.34,1.3-.54,1.95l-1.06,3.12Z" transform="translate(-80.99 -92.98)"/><path d="M212.92,318.9a5,5,0,0,0,2.5.7c1.42,0,2.25-.75,2.25-1.84s-.58-1.58-2-2.14c-1.76-.62-2.85-1.53-2.85-3.05,0-1.68,1.4-2.92,3.49-2.92a4.93,4.93,0,0,1,2.38.52l-.39,1.14a4.3,4.3,0,0,0-2-.51c-1.47,0-2,.88-2,1.61,0,1,.66,1.5,2.14,2.08,1.82.7,2.75,1.58,2.75,3.16s-1.23,3.1-3.77,3.1a5.51,5.51,0,0,1-2.75-.69Z" transform="translate(-80.99 -92.98)"/><path d="M221,309.82h1.39V315h.05c.29-.42.58-.8.85-1.15l3.29-4.05h1.72l-3.89,4.57,4.2,6.2H227l-3.54-5.29-1,1.19v4.1H221Z" transform="translate(-80.99 -92.98)"/><path d="M236.43,321.79v.8h-8v-.8Z" transform="translate(-80.99 -92.98)"/><path d="M246.85,315.1c0,3.7-2.25,5.67-5,5.67S237,318.56,237,315.3c0-3.42,2.12-5.65,5-5.65S246.85,311.9,246.85,315.1Zm-8.36.17c0,2.3,1.25,4.36,3.44,4.36s3.45-2,3.45-4.47c0-2.14-1.12-4.38-3.43-4.38S238.49,312.91,238.49,315.27Z" transform="translate(-80.99 -92.98)"/><path d="M250.05,309.82v6.38c0,2.41,1.07,3.43,2.51,3.43,1.6,0,2.62-1.05,2.62-3.43v-6.38h1.4v6.28c0,3.31-1.74,4.67-4.07,4.67s-3.87-1.27-3.87-4.6v-6.35Z" transform="translate(-80.99 -92.98)"/><path d="M261.05,311h-3.28v-1.19h8V311h-3.29v9.58h-1.4Z" transform="translate(-80.99 -92.98)"/><path d="M270.43,322.38V309.65h2.92v.88h-1.84v11h1.84v.88Z" transform="translate(-80.99 -92.98)"/><path d="M281.12,310.21v.92l-4.52,9.46h-1.46l4.51-9.18v0h-5.08v-1.16Z" transform="translate(-80.99 -92.98)"/><path d="M282.69,319.76a1,1,0,0,1,1-1,1,1,0,1,1-1,1Z" transform="translate(-80.99 -92.98)"/><path d="M286,319.76a1,1,0,1,1,.94,1A.94.94,0,0,1,286,319.76Z" transform="translate(-80.99 -92.98)"/><path d="M296.09,315.29c0,3.53-1.31,5.48-3.61,5.48-2,0-3.4-1.9-3.43-5.34s1.5-5.4,3.61-5.4S296.09,312,296.09,315.29Zm-5.64.16c0,2.7.83,4.23,2.11,4.23,1.44,0,2.13-1.68,2.13-4.33s-.66-4.23-2.11-4.23C291.35,311.12,290.45,312.62,290.45,315.45Z" transform="translate(-80.99 -92.98)"/><path d="M299.9,309.63v12.75H297v-.88h1.83v-11H297v-.88Z" transform="translate(-80.99 -92.98)"/></g><g id="RMASK"><rect class="cls-1" x="585.24" y="83.88" width="176.36" height="109.77"/><path d="M841.09,178.35V285.12H667.73V178.35H841.09m3-3H664.73V288.12H844.09V175.35Z" transform="translate(-80.99 -92.98)"/><line class="cls-2" x1="831.04" y1="114.79" x2="762.62" y2="114.74"/><line class="cls-2" x1="830.59" y1="161.85" x2="763.11" y2="161.85"/><line class="cls-2" x1="672.98" y1="23.77" x2="672.98" y2="82.38"/><path d="M693.82,215.74a38.09,38.09,0,0,1,7.12-.6c4,0,6.52.73,8.31,2.35a7.12,7.12,0,0,1,2.26,5.45,7.55,7.55,0,0,1-5.41,7.33v.13c2.21.77,3.53,2.81,4.22,5.79.93,4,1.62,6.78,2.21,7.89H708.7a37,37,0,0,1-1.92-6.86c-.85-4-2.39-5.46-5.75-5.59h-3.5v12.45h-3.71Zm3.71,13.08h3.79c4,0,6.48-2.17,6.48-5.45,0-3.71-2.68-5.33-6.6-5.37a15.37,15.37,0,0,0-3.67.34Z" transform="translate(-80.99 -92.98)"/><path d="M741,231.46c-.21-4-.47-8.82-.43-12.4h-.12c-1,3.37-2.18,6.95-3.63,10.91l-5.07,13.94H728.9l-4.65-13.68c-1.36-4-2.51-7.76-3.32-11.17h-.09c-.08,3.58-.29,8.4-.55,12.7l-.77,12.32H716l2-28.73h4.73l4.9,13.9c1.19,3.54,2.17,6.69,2.9,9.67h.13c.72-2.9,1.74-6,3-9.67l5.12-13.9h4.73l1.79,28.73h-3.63Z" transform="translate(-80.99 -92.98)"/><path d="M755.24,235l-3,9h-3.84l9.76-28.73h4.48l9.8,28.73h-4l-3.06-9Zm9.42-2.89-2.81-8.27c-.64-1.88-1.07-3.58-1.5-5.24h-.08c-.43,1.7-.9,3.45-1.45,5.2L756,232.15Z" transform="translate(-80.99 -92.98)"/><path d="M776.17,239.56a13.16,13.16,0,0,0,6.65,1.88c3.79,0,6-2,6-4.9,0-2.69-1.53-4.22-5.41-5.71-4.69-1.67-7.58-4.1-7.58-8.14,0-4.48,3.7-7.8,9.29-7.8a13.12,13.12,0,0,1,6.35,1.4l-1,3A11.39,11.39,0,0,0,785,218c-3.92,0-5.41,2.35-5.41,4.31,0,2.68,1.74,4,5.71,5.54,4.86,1.87,7.33,4.22,7.33,8.44,0,4.43-3.28,8.27-10.06,8.27a14.75,14.75,0,0,1-7.33-1.84Z" transform="translate(-80.99 -92.98)"/><path d="M797.69,215.35h3.71v13.86h.13c.76-1.11,1.53-2.14,2.26-3.07l8.77-10.79h4.61l-10.4,12.19L818,244.08h-4.39L804.13,230l-2.73,3.16v11h-3.71Z" transform="translate(-80.99 -92.98)"/><line class="cls-2" x1="659.97" y1="52.01" x2="685.72" y2="68"/><path d="M920.71,201.69a13.9,13.9,0,0,1,2.67-.23,4.41,4.41,0,0,1,3.11.88,2.67,2.67,0,0,1,.85,2,2.83,2.83,0,0,1-2,2.75v0a2.69,2.69,0,0,1,1.58,2.18,18.16,18.16,0,0,0,.83,2.95h-1.43a13.21,13.21,0,0,1-.72-2.57c-.32-1.49-.9-2-2.16-2.09H922.1v4.66h-1.39Zm1.39,4.9h1.42c1.49,0,2.43-.81,2.43-2,0-1.39-1-2-2.48-2a6.08,6.08,0,0,0-1.37.12Z" transform="translate(-80.99 -92.98)"/><path d="M938.38,207.58c-.08-1.5-.17-3.3-.16-4.65h0c-.37,1.27-.82,2.61-1.36,4.09l-1.9,5.23h-1.06l-1.74-5.13c-.51-1.52-.94-2.91-1.24-4.19h0c0,1.35-.11,3.15-.2,4.77l-.29,4.61H929l.75-10.77h1.78l1.83,5.21c.45,1.33.82,2.51,1.09,3.63h0c.27-1.09.65-2.27,1.13-3.63l1.92-5.21h1.77l.67,10.77h-1.35Z" transform="translate(-80.99 -92.98)"/><path d="M943.74,208.93l-1.12,3.38h-1.43l3.65-10.77h1.68l3.68,10.77h-1.49l-1.15-3.38Zm3.53-1.09-1-3.1c-.24-.7-.4-1.34-.56-2h0c-.16.64-.34,1.3-.55,1.95L944,207.84Z" transform="translate(-80.99 -92.98)"/><path d="M951.59,210.62a4.94,4.94,0,0,0,2.49.7c1.42,0,2.25-.75,2.25-1.84s-.57-1.58-2-2.14c-1.76-.62-2.85-1.53-2.85-3.05s1.39-2.92,3.48-2.92a4.82,4.82,0,0,1,2.39.53l-.39,1.13a4.3,4.3,0,0,0-2-.51c-1.47,0-2,.88-2,1.61,0,1,.65,1.5,2.14,2.08,1.82.7,2.75,1.58,2.75,3.16s-1.23,3.1-3.77,3.1a5.59,5.59,0,0,1-2.75-.68Z" transform="translate(-80.99 -92.98)"/><path d="M959.66,201.54h1.39v5.2h.05c.29-.42.57-.8.85-1.15l3.29-4.05H967l-3.9,4.57,4.21,6.2h-1.65L962.07,207l-1,1.19v4.1h-1.39Z" transform="translate(-80.99 -92.98)"/><path d="M975.1,213.51v.8h-8v-.8Z" transform="translate(-80.99 -92.98)"/><path d="M976.12,210.62a5,5,0,0,0,2.5.7c1.42,0,2.25-.75,2.25-1.84s-.58-1.58-2-2.14c-1.76-.62-2.84-1.53-2.84-3.05s1.39-2.92,3.48-2.92a4.8,4.8,0,0,1,2.38.53l-.38,1.13a4.35,4.35,0,0,0-2.05-.51c-1.47,0-2,.88-2,1.61,0,1,.66,1.5,2.14,2.08,1.82.7,2.75,1.58,2.75,3.16s-1.23,3.1-3.77,3.1a5.62,5.62,0,0,1-2.75-.68Z" transform="translate(-80.99 -92.98)"/><path d="M985.58,201.54v4.51h5.21v-4.51h1.41v10.77h-1.41v-5.05h-5.21v5.05h-1.39V201.54Z" transform="translate(-80.99 -92.98)"/><path d="M994.62,201.69a13.87,13.87,0,0,1,2.66-.23,4.44,4.44,0,0,1,3.12.88,2.71,2.71,0,0,1,.85,2,2.84,2.84,0,0,1-2,2.75v0a2.71,2.71,0,0,1,1.58,2.18,17.15,17.15,0,0,0,.83,2.95h-1.44a14.93,14.93,0,0,1-.72-2.57c-.32-1.49-.89-2-2.15-2.09H996v4.66h-1.39Zm1.39,4.9h1.42c1.48,0,2.43-.81,2.43-2,0-1.39-1-2-2.48-2a6,6,0,0,0-1.37.12Z" transform="translate(-80.99 -92.98)"/><path d="M921.55,248.63a14.91,14.91,0,0,1,2.67-.22,4.39,4.39,0,0,1,3.12.88,2.68,2.68,0,0,1,.84,2,2.82,2.82,0,0,1-2,2.75v0a2.68,2.68,0,0,1,1.59,2.17,16.24,16.24,0,0,0,.83,2.95h-1.44a13.21,13.21,0,0,1-.72-2.57c-.32-1.48-.9-2-2.16-2.09h-1.31v4.66h-1.39Zm1.39,4.91h1.43c1.48,0,2.42-.82,2.42-2,0-1.39-1-2-2.47-2a5.48,5.48,0,0,0-1.38.13Z" transform="translate(-80.99 -92.98)"/><path d="M939.23,254.53c-.08-1.51-.18-3.31-.16-4.65H939c-.37,1.26-.82,2.6-1.36,4.09l-1.9,5.22h-1L933,254.06c-.51-1.52-.94-2.9-1.24-4.18h0c0,1.34-.12,3.14-.21,4.76l-.29,4.61h-1.33l.76-10.76h1.77l1.84,5.21c.44,1.32.81,2.5,1.08,3.62h.05c.27-1.08.65-2.27,1.13-3.62l1.92-5.21h1.77l.68,10.76H939.5Z" transform="translate(-80.99 -92.98)"/><path d="M944.58,255.87l-1.12,3.38H942l3.66-10.76h1.67L951,259.25h-1.49l-1.15-3.38Zm3.53-1.09-1.05-3.1c-.24-.7-.4-1.34-.56-2h0q-.24,1-.54,1.95l-1.06,3.11Z" transform="translate(-80.99 -92.98)"/><path d="M952.43,257.56a4.94,4.94,0,0,0,2.49.7c1.43,0,2.26-.75,2.26-1.83s-.58-1.58-2-2.14c-1.76-.63-2.85-1.54-2.85-3.06s1.39-2.92,3.49-2.92a4.91,4.91,0,0,1,2.38.53l-.39,1.13a4.3,4.3,0,0,0-2-.51c-1.47,0-2,.88-2,1.62,0,1,.65,1.5,2.14,2.07,1.82.7,2.75,1.58,2.75,3.17s-1.23,3.09-3.77,3.09a5.62,5.62,0,0,1-2.75-.68Z" transform="translate(-80.99 -92.98)"/><path d="M960.5,248.49h1.39v5.19h.05c.29-.42.58-.8.85-1.15l3.29-4h1.72l-3.89,4.57,4.2,6.19h-1.65L962.92,254l-1,1.18v4.1H960.5Z" transform="translate(-80.99 -92.98)"/><path d="M975.94,260.45v.8h-8v-.8Z" transform="translate(-80.99 -92.98)"/><path d="M977.16,248.49h1.39v9.6h4.6v1.16h-6Z" transform="translate(-80.99 -92.98)"/><path d="M984.7,248.63a19.67,19.67,0,0,1,3-.22,6.16,6.16,0,0,1,4.36,1.34,5,5,0,0,1,1.52,3.87A5.72,5.72,0,0,1,992,257.8a6.64,6.64,0,0,1-4.77,1.55,22.24,22.24,0,0,1-2.52-.13Zm1.39,9.52a8.11,8.11,0,0,0,1.41.08c3,0,4.58-1.66,4.58-4.57,0-2.54-1.42-4.15-4.36-4.15a8,8,0,0,0-1.63.14Z" transform="translate(-80.99 -92.98)"/><path d="M663.06,93.31a14.91,14.91,0,0,1,2.67-.22,4.41,4.41,0,0,1,3.12.88,2.68,2.68,0,0,1,.84,2,2.82,2.82,0,0,1-2,2.75v0a2.7,2.7,0,0,1,1.59,2.17,16.71,16.71,0,0,0,.83,3h-1.44a13.4,13.4,0,0,1-.72-2.58c-.32-1.48-.9-2-2.16-2.09h-1.31v4.67h-1.39Zm1.39,4.91h1.43c1.48,0,2.42-.82,2.42-2,0-1.39-1-2-2.47-2a5.48,5.48,0,0,0-1.38.13Z" transform="translate(-80.99 -92.98)"/><path d="M680.74,99.21c-.08-1.5-.18-3.31-.16-4.65h-.05c-.37,1.26-.82,2.6-1.36,4.09l-1.9,5.22h-1.06l-1.74-5.13c-.51-1.51-.94-2.9-1.24-4.18h0c0,1.34-.12,3.15-.21,4.76l-.29,4.62h-1.33l.75-10.77h1.78l1.84,5.21c.44,1.32.81,2.5,1.08,3.62h0c.27-1.08.65-2.27,1.13-3.62l1.92-5.21h1.77l.68,10.77H681Z" transform="translate(-80.99 -92.98)"/><path d="M686.09,100.55,685,103.94h-1.43l3.66-10.77h1.67l3.68,10.77h-1.49l-1.15-3.39Zm3.53-1.09-1-3.1c-.24-.7-.4-1.34-.56-2h0q-.24,1-.54,1.95l-1.06,3.11Z" transform="translate(-80.99 -92.98)"/><path d="M693.94,102.24a4.84,4.84,0,0,0,2.49.71c1.43,0,2.26-.76,2.26-1.84s-.58-1.58-2-2.14c-1.76-.63-2.85-1.54-2.85-3,0-1.68,1.39-2.93,3.49-2.93a4.91,4.91,0,0,1,2.38.53l-.39,1.13a4.3,4.3,0,0,0-2-.51c-1.47,0-2,.88-2,1.62,0,1,.65,1.5,2.14,2.07,1.82.71,2.75,1.59,2.75,3.17s-1.23,3.1-3.77,3.1a5.62,5.62,0,0,1-2.75-.69Z" transform="translate(-80.99 -92.98)"/><path d="M702,93.17h1.39v5.19h.05c.29-.42.58-.8.85-1.15l3.29-4h1.72l-3.89,4.57,4.2,6.2H708l-3.54-5.29-1,1.18v4.11H702Z" transform="translate(-80.99 -92.98)"/><path d="M717.45,105.13v.8h-8v-.8Z" transform="translate(-80.99 -92.98)"/><path d="M720.06,93.17v10.77h-1.39V93.17Z" transform="translate(-80.99 -92.98)"/><path d="M722.49,103.94V93.17H724l3.46,5.45a31.58,31.58,0,0,1,1.93,3.49h0c-.13-1.44-.16-2.75-.16-4.43v-4.5h1.31v10.77h-1.4l-3.42-5.47a36.57,36.57,0,0,1-2-3.59h-.05c.08,1.36.12,2.66.12,4.44v4.61Z" transform="translate(-80.99 -92.98)"/><path d="M736.49,105.73V93h2.92v.88h-1.84v11h1.84v.88Z" transform="translate(-80.99 -92.98)"/><path d="M747.18,93.55v.93l-4.52,9.46H741.2l4.51-9.19v0h-5.08V93.55Z" transform="translate(-80.99 -92.98)"/><path d="M748.75,103.11a1,1,0,1,1,.94,1A.94.94,0,0,1,748.75,103.11Z" transform="translate(-80.99 -92.98)"/><path d="M752.05,103.11a1,1,0,1,1,1,1A.94.94,0,0,1,752.05,103.11Z" transform="translate(-80.99 -92.98)"/><path d="M762.15,98.63c0,3.53-1.31,5.48-3.61,5.48-2,0-3.4-1.9-3.43-5.33s1.5-5.4,3.61-5.4S762.15,95.33,762.15,98.63Zm-5.64.16c0,2.7.83,4.24,2.11,4.24,1.44,0,2.13-1.68,2.13-4.33s-.66-4.24-2.11-4.24C757.41,94.46,756.51,96,756.51,98.79Z" transform="translate(-80.99 -92.98)"/><path d="M766,93v12.75H763v-.88h1.84v-11H763V93Z" transform="translate(-80.99 -92.98)"/><path d="M771.3,98.55v-1h8.24v1Zm0,3.13v-1h8.24v1Z" transform="translate(-80.99 -92.98)"/><path d="M787.34,94.86h0l-1.81,1-.27-1.07,2.27-1.22h1.2v10.39h-1.36Z" transform="translate(-80.99 -92.98)"/><path d="M799.39,98.63c0,3.53-1.31,5.48-3.61,5.48-2,0-3.4-1.9-3.43-5.33s1.5-5.4,3.61-5.4S799.39,95.33,799.39,98.63Zm-5.64.16c0,2.7.83,4.24,2.11,4.24,1.44,0,2.13-1.68,2.13-4.33s-.66-4.24-2.11-4.24C794.65,94.46,793.75,96,793.75,98.79Z" transform="translate(-80.99 -92.98)"/><path d="M807.59,98.63c0,3.53-1.31,5.48-3.61,5.48-2,0-3.4-1.9-3.44-5.33s1.51-5.4,3.62-5.4S807.59,95.33,807.59,98.63Zm-5.64.16c0,2.7.83,4.24,2.11,4.24,1.44,0,2.12-1.68,2.12-4.33s-.65-4.24-2.1-4.24C802.85,94.46,802,96,802,98.79Z" transform="translate(-80.99 -92.98)"/><path d="M815.79,98.63c0,3.53-1.31,5.48-3.61,5.48-2,0-3.4-1.9-3.44-5.33s1.51-5.4,3.61-5.4S815.79,95.33,815.79,98.63Zm-5.64.16c0,2.7.83,4.24,2.11,4.24,1.44,0,2.12-1.68,2.12-4.33s-.65-4.24-2.11-4.24C811,94.46,810.15,96,810.15,98.79Z" transform="translate(-80.99 -92.98)"/><path d="M824,98.63c0,3.53-1.31,5.48-3.61,5.48-2,0-3.4-1.9-3.44-5.33s1.51-5.4,3.61-5.4S824,95.33,824,98.63Zm-5.64.16c0,2.7.83,4.24,2.11,4.24,1.44,0,2.12-1.68,2.12-4.33s-.65-4.24-2.11-4.24C819.24,94.46,818.35,96,818.35,98.79Z" transform="translate(-80.99 -92.98)"/><path d="M832.19,98.63c0,3.53-1.31,5.48-3.61,5.48-2,0-3.41-1.9-3.44-5.33s1.5-5.4,3.61-5.4S832.19,95.33,832.19,98.63Zm-5.64.16c0,2.7.83,4.24,2.11,4.24,1.43,0,2.12-1.68,2.12-4.33s-.65-4.24-2.11-4.24C827.44,94.46,826.55,96,826.55,98.79Z" transform="translate(-80.99 -92.98)"/><path d="M840.39,98.63c0,3.53-1.31,5.48-3.61,5.48-2,0-3.41-1.9-3.44-5.33s1.5-5.4,3.61-5.4S840.39,95.33,840.39,98.63Zm-5.64.16c0,2.7.83,4.24,2.11,4.24S839,101.35,839,98.7s-.65-4.24-2.11-4.24C835.64,94.46,834.75,96,834.75,98.79Z" transform="translate(-80.99 -92.98)"/><path d="M848.58,98.63c0,3.53-1.3,5.48-3.61,5.48-2,0-3.4-1.9-3.43-5.33s1.5-5.4,3.61-5.4S848.58,95.33,848.58,98.63Zm-5.63.16c0,2.7.83,4.24,2.1,4.24,1.44,0,2.13-1.68,2.13-4.33s-.66-4.24-2.11-4.24C843.84,94.46,843,96,843,98.79Z" transform="translate(-80.99 -92.98)"/><path d="M779.54,310a13.9,13.9,0,0,1,2.67-.23,4.41,4.41,0,0,1,3.11.88,2.67,2.67,0,0,1,.85,2.05,2.83,2.83,0,0,1-2,2.75v0a2.69,2.69,0,0,1,1.58,2.18,18.16,18.16,0,0,0,.83,2.95h-1.43a13.21,13.21,0,0,1-.72-2.57c-.32-1.49-.9-2-2.16-2.09h-1.31v4.66h-1.39Zm1.39,4.9h1.42c1.49,0,2.43-.81,2.43-2,0-1.39-1-2-2.48-2a5.91,5.91,0,0,0-1.37.13Z" transform="translate(-80.99 -92.98)"/><path d="M797.21,315.86c-.08-1.5-.17-3.3-.16-4.65h0c-.37,1.27-.82,2.61-1.36,4.09l-1.9,5.23h-1.06L791,315.4c-.51-1.52-.94-2.91-1.24-4.19h0c0,1.35-.11,3.15-.2,4.76l-.29,4.62h-1.33l.75-10.77h1.78l1.83,5.21c.45,1.33.82,2.51,1.09,3.63h.05c.27-1.09.65-2.27,1.13-3.63l1.92-5.21h1.77l.67,10.77h-1.35Z" transform="translate(-80.99 -92.98)"/><path d="M802.57,317.2l-1.12,3.39H800l3.65-10.77h1.68L809,320.59h-1.49l-1.15-3.39Zm3.53-1.08-1.05-3.1c-.24-.7-.4-1.34-.56-2h0c-.16.64-.34,1.3-.55,1.95l-1,3.12Z" transform="translate(-80.99 -92.98)"/><path d="M810.42,318.9a4.94,4.94,0,0,0,2.49.7c1.42,0,2.26-.75,2.26-1.84s-.58-1.58-2-2.14c-1.76-.62-2.85-1.53-2.85-3.05,0-1.68,1.39-2.92,3.48-2.92a5,5,0,0,1,2.39.52l-.39,1.14a4.3,4.3,0,0,0-2-.51c-1.47,0-2,.88-2,1.61,0,1,.65,1.5,2.14,2.08,1.82.7,2.75,1.58,2.75,3.16s-1.23,3.1-3.77,3.1a5.48,5.48,0,0,1-2.75-.69Z" transform="translate(-80.99 -92.98)"/><path d="M818.49,309.82h1.39V315h0c.29-.42.57-.8.85-1.15l3.29-4.05h1.72l-3.9,4.57,4.21,6.2h-1.65l-3.55-5.29-1,1.19v4.1h-1.39Z" transform="translate(-80.99 -92.98)"/><path d="M833.93,321.79v.8h-8v-.8Z" transform="translate(-80.99 -92.98)"/><path d="M844.35,315.1c0,3.7-2.25,5.67-5,5.67s-4.84-2.21-4.84-5.47c0-3.42,2.12-5.65,5-5.65S844.35,311.9,844.35,315.1Zm-8.36.17c0,2.3,1.25,4.36,3.44,4.36s3.45-2,3.45-4.47c0-2.14-1.12-4.38-3.44-4.38S836,312.91,836,315.27Z" transform="translate(-80.99 -92.98)"/><path d="M847.55,309.82v6.38c0,2.41,1.07,3.43,2.51,3.43,1.59,0,2.62-1.05,2.62-3.43v-6.38h1.4v6.28c0,3.31-1.74,4.67-4.07,4.67s-3.87-1.27-3.87-4.6v-6.35Z" transform="translate(-80.99 -92.98)"/><path d="M858.54,311h-3.27v-1.19h8V311H860v9.58h-1.41Z" transform="translate(-80.99 -92.98)"/><path d="M867.93,322.38V309.65h2.92v.88H869v11h1.84v.88Z" transform="translate(-80.99 -92.98)"/><path d="M878.62,310.21v.92l-4.53,9.46h-1.45l4.51-9.18v0h-5.08v-1.16Z" transform="translate(-80.99 -92.98)"/><path d="M880.18,319.76a1,1,0,0,1,1-1,1,1,0,0,1,0,2A1,1,0,0,1,880.18,319.76Z" transform="translate(-80.99 -92.98)"/><path d="M883.49,319.76a1,1,0,0,1,1-1,1,1,0,0,1,0,2A1,1,0,0,1,883.49,319.76Z" transform="translate(-80.99 -92.98)"/><path d="M893.59,315.29c0,3.53-1.31,5.48-3.61,5.48-2,0-3.4-1.9-3.43-5.34s1.5-5.4,3.61-5.4S893.59,312,893.59,315.29Zm-5.64.16c0,2.7.83,4.23,2.11,4.23,1.44,0,2.13-1.68,2.13-4.33s-.66-4.23-2.11-4.23C888.85,311.12,888,312.62,888,315.45Z" transform="translate(-80.99 -92.98)"/><path d="M897.4,309.63v12.75h-2.93v-.88h1.84v-11h-1.84v-.88Z" transform="translate(-80.99 -92.98)"/></g><g id="DISPLAY"><rect class="cls-1" x="371.69" y="1130.76" width="176.36" height="109.77"/><path d="M627.55,1225.23V1332H454.18V1225.23H627.55m3-3H451.18V1335H630.55V1222.23Z" transform="translate(-80.99 -92.98)"/><path d="M469.79,1265.55a53.3,53.3,0,0,1,7.89-.6c5.33,0,9.12,1.24,11.63,3.58s4.05,5.67,4.05,10.31-1.45,8.53-4.13,11.17-7.12,4.13-12.7,4.13a58.36,58.36,0,0,1-6.74-.34Zm3.71,25.4a23.52,23.52,0,0,0,3.75.21c7.93,0,12.23-4.43,12.23-12.19,0-6.77-3.79-11.08-11.63-11.08a21.35,21.35,0,0,0-4.35.38Z" transform="translate(-80.99 -92.98)"/><path d="M501.89,1265.16v28.73h-3.71v-28.73Z" transform="translate(-80.99 -92.98)"/><path d="M507.85,1289.37a13.19,13.19,0,0,0,6.65,1.88c3.79,0,6-2,6-4.91,0-2.68-1.53-4.22-5.41-5.71-4.69-1.66-7.59-4.09-7.59-8.14,0-4.47,3.71-7.8,9.29-7.8a13.07,13.07,0,0,1,6.35,1.41l-1,3a11.46,11.46,0,0,0-5.45-1.37c-3.93,0-5.42,2.35-5.42,4.31,0,2.68,1.75,4,5.71,5.54,4.86,1.87,7.33,4.22,7.33,8.44,0,4.43-3.28,8.26-10,8.26a14.86,14.86,0,0,1-7.33-1.83Z" transform="translate(-80.99 -92.98)"/><path d="M529.38,1265.5a43.91,43.91,0,0,1,7.11-.55c3.67,0,6.35.85,8.06,2.39a7.7,7.7,0,0,1,2.51,6,8.43,8.43,0,0,1-2.21,6.13c-2,2.09-5.16,3.16-8.78,3.16a13,13,0,0,1-3-.26v11.51h-3.7Zm3.7,13.86a12.68,12.68,0,0,0,3.07.29c4.48,0,7.21-2.17,7.21-6.13,0-3.8-2.69-5.63-6.78-5.63a15.62,15.62,0,0,0-3.5.3Z" transform="translate(-80.99 -92.98)"/><path d="M552.05,1265.16h3.71v25.62H568v3.11h-16Z" transform="translate(-80.99 -92.98)"/><path d="M576.81,1284.85l-3,9H570l9.76-28.73h4.48l9.8,28.73h-4l-3.07-9Zm9.42-2.89-2.81-8.27c-.64-1.88-1.07-3.58-1.49-5.24h-.09c-.42,1.7-.89,3.45-1.45,5.19l-2.81,8.32Z" transform="translate(-80.99 -92.98)"/><path d="M601.28,1293.89V1281.7l-9.08-16.54h4.22l4.05,7.93c1.11,2.17,2,3.92,2.85,5.92h.09c.81-1.87,1.79-3.75,2.9-5.92l4.13-7.93h4.22l-9.63,16.5v12.23Z" transform="translate(-80.99 -92.98)"/><line class="cls-2" x1="302.27" y1="1209.62" x2="369.75" y2="1209.62"/><line class="cls-2" x1="302.71" y1="1162.56" x2="370.19" y2="1162.56"/><line class="cls-2" x1="460.32" y1="1300.63" x2="460.32" y2="1242.03"/><line class="cls-2" x1="447.56" y1="1253.31" x2="473.31" y2="1269.29"/><path d="M293.17,1249.62a21,21,0,0,1,2.95-.22,6.19,6.19,0,0,1,4.37,1.34,5,5,0,0,1,1.51,3.87,5.66,5.66,0,0,1-1.55,4.18,6.59,6.59,0,0,1-4.76,1.55,22.5,22.5,0,0,1-2.52-.12Zm1.39,9.53a9.19,9.19,0,0,0,1.4.08c3,0,4.59-1.66,4.59-4.57,0-2.54-1.42-4.16-4.36-4.16a7.82,7.82,0,0,0-1.63.15Z" transform="translate(-80.99 -92.98)"/><path d="M305.2,1249.48v10.77h-1.39v-10.77Z" transform="translate(-80.99 -92.98)"/><path d="M307.44,1258.56a5,5,0,0,0,2.49.7c1.43,0,2.26-.75,2.26-1.84s-.58-1.58-2-2.14c-1.76-.62-2.85-1.53-2.85-3,0-1.68,1.39-2.92,3.49-2.92a4.93,4.93,0,0,1,2.38.52l-.39,1.14a4.3,4.3,0,0,0-2-.51c-1.47,0-2,.87-2,1.61,0,1,.65,1.5,2.14,2.08,1.82.7,2.75,1.58,2.75,3.16s-1.23,3.1-3.77,3.1a5.51,5.51,0,0,1-2.75-.69Z" transform="translate(-80.99 -92.98)"/><path d="M315.51,1249.61a16.27,16.27,0,0,1,2.67-.21,4.41,4.41,0,0,1,3,.9,2.89,2.89,0,0,1,.94,2.25,3.19,3.19,0,0,1-.83,2.3A4.46,4.46,0,0,1,318,1256a4.84,4.84,0,0,1-1.12-.09v4.31h-1.39Zm1.39,5.19a4.71,4.71,0,0,0,1.15.11c1.68,0,2.7-.81,2.7-2.3s-1-2.11-2.54-2.11a5.42,5.42,0,0,0-1.31.12Z" transform="translate(-80.99 -92.98)"/><path d="M324,1249.48h1.39v9.6H330v1.17h-6Z" transform="translate(-80.99 -92.98)"/><path d="M333.3,1256.86l-1.12,3.39h-1.44l3.66-10.77h1.68l3.67,10.77h-1.48l-1.15-3.39Zm3.53-1.08-1.05-3.1c-.24-.71-.4-1.35-.56-2h0c-.16.64-.34,1.3-.55,2l-1.05,3.12Z" transform="translate(-80.99 -92.98)"/><path d="M342.47,1260.25v-4.57l-3.4-6.2h1.58l1.52,3c.42.82.74,1.47,1.07,2.22h0c.31-.7.67-1.4,1.09-2.22l1.55-3h1.58l-3.61,6.18v4.59Z" transform="translate(-80.99 -92.98)"/><path d="M355.5,1261.45v.8h-8v-.8Z" transform="translate(-80.99 -92.98)"/><path d="M356.72,1249.48h1.39v9.6h4.6v1.17h-6Z" transform="translate(-80.99 -92.98)"/><path d="M364.26,1249.62a21.08,21.08,0,0,1,3-.22,6.18,6.18,0,0,1,4.36,1.34,5,5,0,0,1,1.51,3.87,5.66,5.66,0,0,1-1.55,4.18,6.59,6.59,0,0,1-4.76,1.55,22.5,22.5,0,0,1-2.52-.12Zm1.39,9.53a9.25,9.25,0,0,0,1.41.08c3,0,4.58-1.66,4.58-4.57,0-2.54-1.42-4.16-4.36-4.16a7.82,7.82,0,0,0-1.63.15Z" transform="translate(-80.99 -92.98)"/><path d="M287.84,1296.69a19.57,19.57,0,0,1,3-.23,6.16,6.16,0,0,1,4.36,1.34,5,5,0,0,1,1.52,3.87,5.73,5.73,0,0,1-1.55,4.19,6.67,6.67,0,0,1-4.76,1.55,22.43,22.43,0,0,1-2.53-.13Zm1.39,9.52a9.25,9.25,0,0,0,1.41.08c3,0,4.58-1.66,4.58-4.57,0-2.54-1.42-4.16-4.36-4.16a7.82,7.82,0,0,0-1.63.15Z" transform="translate(-80.99 -92.98)"/><path d="M299.88,1296.54v10.77h-1.39v-10.77Z" transform="translate(-80.99 -92.98)"/><path d="M302.11,1305.62a5,5,0,0,0,2.5.7c1.42,0,2.25-.75,2.25-1.84s-.58-1.58-2-2.14c-1.76-.62-2.84-1.53-2.84-3,0-1.68,1.39-2.92,3.48-2.92a4.93,4.93,0,0,1,2.38.52l-.38,1.14a4.35,4.35,0,0,0-2.05-.51c-1.47,0-2,.87-2,1.61,0,1,.66,1.5,2.14,2.08,1.82.7,2.75,1.58,2.75,3.16s-1.23,3.1-3.77,3.1a5.51,5.51,0,0,1-2.75-.69Z" transform="translate(-80.99 -92.98)"/><path d="M310.19,1296.67a16.14,16.14,0,0,1,2.66-.21,4.39,4.39,0,0,1,3,.9,2.89,2.89,0,0,1,.94,2.25,3.15,3.15,0,0,1-.83,2.3,4.46,4.46,0,0,1-3.29,1.18,4.84,4.84,0,0,1-1.12-.09v4.31h-1.38Zm1.38,5.19a4.75,4.75,0,0,0,1.16.11c1.67,0,2.69-.81,2.69-2.3s-1-2.11-2.54-2.11a5.42,5.42,0,0,0-1.31.12Z" transform="translate(-80.99 -92.98)"/><path d="M318.69,1296.54h1.39v9.6h4.6v1.17h-6Z" transform="translate(-80.99 -92.98)"/><path d="M328,1303.92l-1.12,3.39h-1.43l3.66-10.77h1.67l3.68,10.77h-1.49l-1.15-3.39Zm3.53-1.08-1.05-3.1c-.24-.71-.4-1.35-.56-2h0c-.16.64-.34,1.3-.55,2l-1.05,3.12Z" transform="translate(-80.99 -92.98)"/><path d="M337.15,1307.31v-4.57l-3.41-6.2h1.59l1.51,3c.42.82.74,1.47,1.07,2.22h0c.3-.7.67-1.4,1.08-2.22l1.55-3h1.58l-3.61,6.18v4.59Z" transform="translate(-80.99 -92.98)"/><path d="M350.17,1308.51v.8h-8v-.8Z" transform="translate(-80.99 -92.98)"/><path d="M351.39,1296.69a13.9,13.9,0,0,1,2.67-.23,4.38,4.38,0,0,1,3.11.88,2.69,2.69,0,0,1,.85,2.05,2.82,2.82,0,0,1-2,2.74v0a2.68,2.68,0,0,1,1.58,2.17,17.36,17.36,0,0,0,.83,3H357a14.33,14.33,0,0,1-.71-2.57c-.32-1.49-.9-2-2.16-2.1h-1.31v4.67h-1.39Zm1.39,4.9h1.42c1.49,0,2.43-.81,2.43-2s-1-2-2.48-2a5.84,5.84,0,0,0-1.37.13Z" transform="translate(-80.99 -92.98)"/><path d="M359.8,1305.62a4.94,4.94,0,0,0,2.49.7c1.42,0,2.25-.75,2.25-1.84s-.57-1.58-2-2.14c-1.76-.62-2.84-1.53-2.84-3,0-1.68,1.39-2.92,3.48-2.92a4.93,4.93,0,0,1,2.38.52l-.38,1.14a4.31,4.31,0,0,0-2-.51c-1.47,0-2,.87-2,1.61,0,1,.66,1.5,2.14,2.08,1.83.7,2.75,1.58,2.75,3.16s-1.23,3.1-3.77,3.1a5.51,5.51,0,0,1-2.75-.69Z" transform="translate(-80.99 -92.98)"/><path d="M369.91,1297.72h-3.27v-1.18h8v1.18h-3.29v9.59h-1.41Z" transform="translate(-80.99 -92.98)"/><path d="M513.55,1401.64h1.39v9.6h4.6v1.17h-6Z" transform="translate(-80.99 -92.98)"/><path d="M526.67,1407.36h-4.18v3.88h4.66v1.17h-6v-10.77h5.81v1.17h-4.42v3.4h4.18Z" transform="translate(-80.99 -92.98)"/><path d="M529,1401.78a21.08,21.08,0,0,1,3-.22,6.18,6.18,0,0,1,4.36,1.34,5,5,0,0,1,1.51,3.87,5.66,5.66,0,0,1-1.55,4.18,6.59,6.59,0,0,1-4.76,1.55,22.5,22.5,0,0,1-2.52-.12Zm1.39,9.53a9.19,9.19,0,0,0,1.4.08c3,0,4.59-1.67,4.59-4.57,0-2.54-1.42-4.16-4.36-4.16a7.82,7.82,0,0,0-1.63.15Z" transform="translate(-80.99 -92.98)"/><path d="M543.09,1414.2v-12.74H546v.88h-1.84v11H546v.88Z" transform="translate(-80.99 -92.98)"/><path d="M553.78,1402v.93l-4.52,9.46H547.8l4.51-9.19v0h-5.08V1402Z" transform="translate(-80.99 -92.98)"/><path d="M555.35,1411.58a1,1,0,1,1,1.9,0,1,1,0,1,1-1.9,0Z" transform="translate(-80.99 -92.98)"/><path d="M558.65,1411.58a1,1,0,1,1,1.91,0,1,1,0,1,1-1.91,0Z" transform="translate(-80.99 -92.98)"/><path d="M568.75,1407.1c0,3.53-1.31,5.48-3.61,5.48-2,0-3.4-1.9-3.43-5.33s1.5-5.4,3.61-5.4S568.75,1403.8,568.75,1407.1Zm-5.64.16c0,2.7.83,4.24,2.11,4.24,1.44,0,2.13-1.68,2.13-4.33s-.66-4.24-2.11-4.24C564,1402.93,563.11,1404.44,563.11,1407.26Z" transform="translate(-80.99 -92.98)"/><path d="M572.56,1401.45v12.75h-2.93v-.88h1.84v-11h-1.84v-.88Z" transform="translate(-80.99 -92.98)"/></g><g id="OR"><path class="cls-2" d="M602.24,684.59H477.61L415.3,576.65H664.56Z" transform="translate(-80.99 -92.98)"/><path d="M543.46,630.52c0,9.89-6,15.13-13.34,15.13-7.59,0-12.92-5.88-12.92-14.58,0-9.12,5.67-15.08,13.34-15.08C538.38,616,543.46,622,543.46,630.52Zm-22.29.47c0,6.13,3.32,11.63,9.16,11.63s9.2-5.41,9.2-11.93c0-5.71-3-11.68-9.16-11.68S521.17,624.68,521.17,631Z" transform="translate(-80.99 -92.98)"/><path d="M548.27,616.84a38.09,38.09,0,0,1,7.12-.6c4,0,6.52.73,8.31,2.34A7.16,7.16,0,0,1,566,624a7.55,7.55,0,0,1-5.41,7.33v.13c2.21.77,3.53,2.81,4.22,5.79.93,4,1.61,6.78,2.21,7.89h-3.83a37,37,0,0,1-1.92-6.86c-.85-4-2.39-5.46-5.76-5.59H552v12.45h-3.71ZM552,629.92h3.79c4,0,6.48-2.17,6.48-5.45,0-3.71-2.68-5.33-6.6-5.37a15.37,15.37,0,0,0-3.67.34Z" transform="translate(-80.99 -92.98)"/><path d="M382.73,561.76c0,3.7-2.26,5.67-5,5.67s-4.84-2.2-4.84-5.46c0-3.42,2.12-5.66,5-5.66S382.73,558.56,382.73,561.76Zm-8.36.17c0,2.3,1.25,4.37,3.44,4.37s3.45-2,3.45-4.48c0-2.14-1.12-4.38-3.44-4.38S374.37,559.57,374.37,561.93Z" transform="translate(-80.99 -92.98)"/><path d="M384.54,556.63a14.83,14.83,0,0,1,2.67-.22,4.38,4.38,0,0,1,3.11.88,2.67,2.67,0,0,1,.85,2,2.84,2.84,0,0,1-2,2.75v0a2.67,2.67,0,0,1,1.58,2.17,17.15,17.15,0,0,0,.83,3h-1.44a14.93,14.93,0,0,1-.72-2.57c-.32-1.48-.89-2-2.15-2.09h-1.31v4.66h-1.39Zm1.39,4.9h1.42c1.48,0,2.43-.81,2.43-2,0-1.39-1-2-2.48-2a6,6,0,0,0-1.37.12Z" transform="translate(-80.99 -92.98)"/><path d="M399.91,568.45v.8h-8v-.8Z" transform="translate(-80.99 -92.98)"/><path d="M402.87,563.87l-1.12,3.38h-1.44L404,556.49h1.68l3.67,10.76h-1.48l-1.15-3.38Zm3.53-1.09-1-3.1c-.24-.7-.4-1.34-.56-2h0c-.16.64-.33,1.29-.54,1.95l-1,3.11Z" transform="translate(-80.99 -92.98)"/><path d="M414.39,569V556.31h2.93v.88h-1.84v11h1.84V569Z" transform="translate(-80.99 -92.98)"/><path d="M425.08,556.87v.93l-4.52,9.45h-1.45l4.5-9.18v0h-5.08v-1.17Z" transform="translate(-80.99 -92.98)"/><path d="M426.65,566.42a.94.94,0,0,1,1-1,1,1,0,0,1,0,2A.94.94,0,0,1,426.65,566.42Z" transform="translate(-80.99 -92.98)"/><path d="M430,566.42a.94.94,0,0,1,1-1,.93.93,0,0,1,.94,1,1,1,0,1,1-1.9,0Z" transform="translate(-80.99 -92.98)"/><path d="M440.06,562c0,3.53-1.31,5.48-3.61,5.48-2,0-3.41-1.9-3.44-5.34s1.5-5.4,3.61-5.4S440.06,558.64,440.06,562Zm-5.64.16c0,2.7.83,4.23,2.11,4.23,1.44,0,2.12-1.67,2.12-4.33s-.65-4.23-2.11-4.23C435.31,557.78,434.42,559.28,434.42,562.11Z" transform="translate(-80.99 -92.98)"/><path d="M443.86,556.29V569h-2.92v-.88h1.84v-11h-1.84v-.88Z" transform="translate(-80.99 -92.98)"/><path d="M646.65,562.16c0,3.71-2.25,5.67-5,5.67s-4.84-2.2-4.84-5.46c0-3.42,2.12-5.66,5-5.66S646.65,559,646.65,562.16Zm-8.36.18c0,2.3,1.25,4.36,3.44,4.36s3.45-2,3.45-4.48c0-2.14-1.12-4.37-3.44-4.37S638.29,560,638.29,562.34Z" transform="translate(-80.99 -92.98)"/><path d="M648.46,557a14.83,14.83,0,0,1,2.67-.22,4.38,4.38,0,0,1,3.11.88,2.65,2.65,0,0,1,.85,2,2.83,2.83,0,0,1-2,2.75v0a2.67,2.67,0,0,1,1.58,2.17,17.66,17.66,0,0,0,.83,3H654a14.54,14.54,0,0,1-.71-2.58c-.32-1.48-.9-2-2.16-2.09h-1.31v4.67h-1.39Zm1.39,4.91h1.42c1.49,0,2.43-.82,2.43-2.05,0-1.39-1-2-2.48-2a5.32,5.32,0,0,0-1.37.13Z" transform="translate(-80.99 -92.98)"/><path d="M663.83,568.85v.8h-8v-.8Z" transform="translate(-80.99 -92.98)"/><path d="M665.05,557a13.38,13.38,0,0,1,2.54-.22,4.45,4.45,0,0,1,2.95.78,2.27,2.27,0,0,1,.9,1.9,2.57,2.57,0,0,1-1.82,2.37v0a2.77,2.77,0,0,1,2.22,2.7,2.92,2.92,0,0,1-.91,2.16,5.45,5.45,0,0,1-3.72,1,15.18,15.18,0,0,1-2.16-.13Zm1.39,4.41h1.26c1.47,0,2.33-.77,2.33-1.8,0-1.27-.95-1.76-2.36-1.76a6.74,6.74,0,0,0-1.23.09Zm0,5.16a7.06,7.06,0,0,0,1.17.07c1.43,0,2.76-.53,2.76-2.1s-1.26-2.07-2.78-2.07h-1.15Z" transform="translate(-80.99 -92.98)"/><path d="M677.2,569.45V556.71h2.92v.88h-1.84v11h1.84v.88Z" transform="translate(-80.99 -92.98)"/><path d="M687.89,557.27v.93l-4.53,9.46h-1.45l4.51-9.19v0h-5.09v-1.17Z" transform="translate(-80.99 -92.98)"/><path d="M689.46,566.83a1,1,0,1,1,.94,1A.94.94,0,0,1,689.46,566.83Z" transform="translate(-80.99 -92.98)"/><path d="M692.76,566.83a.94.94,0,0,1,1-1,1,1,0,0,1,0,2A.94.94,0,0,1,692.76,566.83Z" transform="translate(-80.99 -92.98)"/><path d="M702.86,562.35c0,3.53-1.31,5.48-3.61,5.48-2,0-3.4-1.9-3.43-5.33s1.5-5.4,3.61-5.4S702.86,559.05,702.86,562.35Zm-5.64.16c0,2.7.83,4.24,2.11,4.24,1.44,0,2.13-1.68,2.13-4.33s-.66-4.24-2.11-4.24C698.12,558.18,697.22,559.68,697.22,562.51Z" transform="translate(-80.99 -92.98)"/><path d="M706.67,556.7v12.75h-2.93v-.88h1.84v-11h-1.84v-.88Z" transform="translate(-80.99 -92.98)"/><path d="M566.43,700.65c0,3.71-2.26,5.68-5,5.68s-4.84-2.21-4.84-5.47c0-3.42,2.13-5.65,5-5.65S566.43,697.46,566.43,700.65Zm-8.36.18c0,2.3,1.25,4.36,3.43,4.36s3.46-2,3.46-4.47c0-2.14-1.12-4.38-3.44-4.38S558.07,698.47,558.07,700.83Z" transform="translate(-80.99 -92.98)"/><path d="M568.24,695.53a13.87,13.87,0,0,1,2.66-.23,4.39,4.39,0,0,1,3.12.88,2.71,2.71,0,0,1,.85,2.05,2.82,2.82,0,0,1-2,2.74v0a2.7,2.7,0,0,1,1.58,2.17,17.36,17.36,0,0,0,.83,3h-1.44a14,14,0,0,1-.72-2.57c-.32-1.49-.89-2.05-2.15-2.09h-1.32v4.66h-1.38Zm1.38,4.9h1.43c1.48,0,2.42-.81,2.42-2,0-1.39-1-2-2.47-2a6,6,0,0,0-1.38.13Z" transform="translate(-80.99 -92.98)"/><path d="M583.61,707.35v.8h-8v-.8Z" transform="translate(-80.99 -92.98)"/><path d="M592.35,705.8a7,7,0,0,1-2.84.51c-3,0-5.32-1.92-5.32-5.45a5.35,5.35,0,0,1,5.62-5.65,5.69,5.69,0,0,1,2.56.48l-.34,1.13a5,5,0,0,0-2.17-.45c-2.53,0-4.2,1.62-4.2,4.44,0,2.64,1.51,4.33,4.13,4.33a5.59,5.59,0,0,0,2.27-.44Z" transform="translate(-80.99 -92.98)"/><path d="M597.58,707.94V695.21h2.92v.88h-1.83v11h1.83v.88Z" transform="translate(-80.99 -92.98)"/><path d="M608.27,695.77v.92l-4.52,9.46h-1.46L606.8,697v0h-5.08v-1.16Z" transform="translate(-80.99 -92.98)"/><path d="M609.84,705.32a1,1,0,0,1,1-1,1,1,0,0,1,0,2A.94.94,0,0,1,609.84,705.32Z" transform="translate(-80.99 -92.98)"/><path d="M613.15,705.32a1,1,0,1,1,.94,1A.95.95,0,0,1,613.15,705.32Z" transform="translate(-80.99 -92.98)"/><path d="M623.24,700.85c0,3.53-1.31,5.48-3.61,5.48-2,0-3.4-1.91-3.43-5.34s1.5-5.4,3.61-5.4S623.24,697.54,623.24,700.85Zm-5.63.16c0,2.7.83,4.23,2.1,4.23,1.44,0,2.13-1.68,2.13-4.33s-.66-4.23-2.11-4.23C618.5,696.68,617.61,698.18,617.61,701Z" transform="translate(-80.99 -92.98)"/><path d="M627.05,695.19v12.75h-2.92v-.88H626v-11h-1.83v-.88Z" transform="translate(-80.99 -92.98)"/></g><g id="MUX"><path class="cls-2" d="M727.38,930.36l-93.47,107.93H447L353.49,930.36h103l35,40.39h97.21l35-40.39Z" transform="translate(-80.99 -92.98)"/><path d="M523.56,1005.47c-.21-4-.47-8.82-.43-12.4H523c-1,3.37-2.17,6.95-3.62,10.91l-5.07,13.94H511.5l-4.65-13.68c-1.36-4-2.51-7.76-3.32-11.17h-.09c-.08,3.58-.29,8.4-.55,12.7l-.77,12.32h-3.54l2-28.73h4.73l4.9,13.9c1.19,3.53,2.17,6.69,2.9,9.67h.13c.72-2.9,1.74-6,3-9.67l5.12-13.9h4.73l1.79,28.73h-3.63Z" transform="translate(-80.99 -92.98)"/><path d="M537.33,989.36v17c0,6.43,2.85,9.16,6.69,9.16,4.26,0,7-2.81,7-9.16v-17h3.75v16.75c0,8.83-4.65,12.45-10.87,12.45-5.88,0-10.31-3.37-10.31-12.28V989.36Z" transform="translate(-80.99 -92.98)"/><path d="M576.92,1018.09l-3.66-6.35c-1.5-2.43-2.43-4-3.33-5.67h-.08c-.81,1.66-1.62,3.2-3.12,5.71l-3.45,6.31H559l8.78-14.53-8.44-14.2h4.31l3.79,6.74c1.07,1.87,1.87,3.32,2.64,4.86h.13c.81-1.71,1.53-3,2.6-4.86l3.92-6.74H581l-8.73,14,8.94,14.75Z" transform="translate(-80.99 -92.98)"/><line class="cls-2" x1="615.36" y1="872.79" x2="682.84" y2="872.79"/><line class="cls-2" x1="574.82" y1="919.85" x2="683.29" y2="919.85"/><line class="cls-2" x1="257.38" y1="898.79" x2="324.86" y2="898.79"/><line class="cls-2" x1="256.93" y1="884.14" x2="256.93" y2="913.44"/><line class="cls-2" x1="247.75" y1="888.52" x2="247.75" y2="910.5"/><line class="cls-2" x1="237.98" y1="892.18" x2="237.98" y2="906.84"/><line class="cls-2" x1="289.48" y1="911.5" x2="305.46" y2="885.75"/><path d="M401.44,1003c0,3.53-1.31,5.48-3.61,5.48-2,0-3.4-1.9-3.44-5.33s1.51-5.4,3.61-5.4S401.44,999.71,401.44,1003Zm-5.64.16c0,2.7.83,4.24,2.11,4.24,1.44,0,2.12-1.68,2.12-4.33s-.65-4.24-2.11-4.24C396.69,998.85,395.8,1000.35,395.8,1003.18Z" transform="translate(-80.99 -92.98)"/><path d="M394.87,926.83V926l1.1-1.07c2.65-2.52,3.85-3.86,3.86-5.43a1.85,1.85,0,0,0-2.06-2,3.53,3.53,0,0,0-2.2.88l-.45-1a4.54,4.54,0,0,1,2.94-1.05,2.92,2.92,0,0,1,3.18,3c0,1.91-1.39,3.46-3.58,5.57l-.83.77v0h4.67v1.17Z" transform="translate(-80.99 -92.98)"/><path d="M527.38,965.33a4.63,4.63,0,0,0,2.3.66c1.8,0,2.36-1.15,2.35-2,0-1.46-1.33-2.08-2.69-2.08h-.78v-1h.78c1,0,2.32-.53,2.32-1.76,0-.83-.53-1.57-1.82-1.57a3.83,3.83,0,0,0-2.08.69l-.37-1a5,5,0,0,1,2.72-.8c2,0,3,1.21,3,2.47a2.58,2.58,0,0,1-1.91,2.45v0a2.71,2.71,0,0,1,2.31,2.67c0,1.66-1.29,3.11-3.78,3.11a5.22,5.22,0,0,1-2.7-.7Z" transform="translate(-80.99 -92.98)"/><path d="M663.79,916.21h0l-1.81,1-.27-1.07L664,914.9h1.2v10.38h-1.36Z" transform="translate(-80.99 -92.98)"/><path d="M775.45,960.09a19.67,19.67,0,0,1,3-.22,6.16,6.16,0,0,1,4.36,1.34,5,5,0,0,1,1.52,3.87,5.72,5.72,0,0,1-1.55,4.18,6.63,6.63,0,0,1-4.76,1.55,22.43,22.43,0,0,1-2.53-.13Zm1.39,9.52a8.11,8.11,0,0,0,1.41.08c3,0,4.58-1.66,4.58-4.57,0-2.54-1.42-4.15-4.36-4.15a8,8,0,0,0-1.63.14Z" transform="translate(-80.99 -92.98)"/><path d="M788.65,961.64h0l-1.81,1-.27-1.08,2.27-1.21H790v10.39h-1.36Z" transform="translate(-80.99 -92.98)"/><path d="M775.91,1007.73a19.43,19.43,0,0,1,3-.23,6.15,6.15,0,0,1,4.36,1.35,4.93,4.93,0,0,1,1.52,3.86,5.69,5.69,0,0,1-1.55,4.19,6.67,6.67,0,0,1-4.76,1.55,22.24,22.24,0,0,1-2.52-.13Zm1.39,9.52a9.19,9.19,0,0,0,1.4.08c3,0,4.59-1.66,4.59-4.57,0-2.54-1.43-4.15-4.37-4.15a7.85,7.85,0,0,0-1.62.14Z" transform="translate(-80.99 -92.98)"/><path d="M793,1013.05c0,3.53-1.31,5.48-3.61,5.48-2,0-3.41-1.9-3.44-5.34s1.5-5.4,3.61-5.4S793,1009.74,793,1013.05Zm-5.64.16c0,2.7.83,4.23,2.11,4.23,1.43,0,2.12-1.68,2.12-4.33s-.65-4.23-2.11-4.23C788.21,1008.88,787.32,1010.38,787.32,1013.21Z" transform="translate(-80.99 -92.98)"/></g><g id="LMASK-MUX"><line class="cls-2" x1="245.39" y1="195.54" x2="245.39" y2="706.11"/><line class="cls-2" x1="327.52" y1="706.11" x2="244.06" y2="706.11"/><line class="cls-2" x1="326.19" y1="836.63" x2="326.19" y2="706.11"/><line class="cls-2" x1="232.07" y1="212.41" x2="257.82" y2="228.39"/><line class="cls-2" x1="313.4" y1="807.25" x2="339.15" y2="823.23"/></g><g id="RMASK-MUX"><line class="cls-2" x1="674.27" y1="194.21" x2="674.4" y2="706.89"/><line class="cls-2" x1="592.26" y1="706.89" x2="675.73" y2="706.89"/><line class="cls-2" x1="593.59" y1="836.53" x2="593.59" y2="706.89"/><line class="cls-2" x1="661.97" y1="212.31" x2="687.72" y2="228.29"/><line class="cls-2" x1="580.81" y1="807.14" x2="606.56" y2="823.13"/></g><g id="LMASK-OR"><line class="cls-2" x1="245.39" y1="390" x2="381.25" y2="390"/><line class="cls-2" x1="381.25" y1="482.34" x2="381.25" y2="388.67"/><line class="cls-2" x1="368.47" y1="451.99" x2="394.22" y2="467.97"/></g><g id="RMASK-OR"><line class="cls-2" x1="673.26" y1="391.39" x2="537.4" y2="391.39"/><line class="cls-2" x1="537.4" y1="483.73" x2="537.4" y2="390.06"/><line class="cls-2" x1="524.19" y1="453.35" x2="549.95" y2="469.34"/></g><g id="OR-MUX"><line class="cls-2" x1="459.38" y1="591.56" x2="459.38" y2="877.48"/><line class="cls-2" x1="446.42" y1="848.04" x2="472.17" y2="864.03"/><line class="cls-2" x1="446.42" y1="607.41" x2="472.17" y2="623.4"/></g><g id="MUX-DISPLAY"><line class="cls-2" x1="459.38" y1="944.96" x2="459.38" y2="1129.65"/><line class="cls-2" x1="446.14" y1="961.06" x2="471.89" y2="977.04"/><line class="cls-2" x1="446.68" y1="1101.81" x2="472.43" y2="1117.79"/></g></svg>